<svg fill="none" xmlns="http://www.w3.org/2000/svg" viewBox="0 0 5168 3051">
    <path
        d="m5.19 3050.88.064-.03c13.231-87.5 99.875-257.28 259.93-509.36 122.948-200.47 361.793-545.54 716.533-1035.19 36.063-51.59 63.753-98.02 83.063-139.31 13.91-45.37 2.42-78.43-34.47-99.19-22.29-16.07-74.943-16.77-157.956-2.11-69.161 11.63-141.996 31.21-218.504 58.72-35.911 12.54-150.787 66.29-344.627 161.24-26.97 12.1-50.715 19.06-71.235 20.88 318.296-468.39 535.04-802.221 650.232-1001.491 79.699-138.226 129.68-234.879 149.93-289.959 20.34-44.298 15.65-70.687-14.07-79.167 22.9 8.821 28.76 27.559 17.55 56.215-14.49 41.176-51.134 112.01-109.923 212.501-85.725 155.337-305.399 494.573-659.025 1017.711-33.895 52.61-50.714 85.44-50.456 98.5 3.358 13.23 25.637 12.58 66.836-1.92l361.053-167.39c50.052-19.49 108.194-36.92 174.424-52.3 160.069-38.91 232.601-23.47 217.611 46.33-13.34 33.09-39.79 78.56-79.346 136.38C510.897 2117.89 261.689 2480.58 215.18 2570 83.385 2783.27 13.388 2943.57 5.19 3050.88Z"
        fill="currentColor" />
    <path
        d="m5166.7 1397.06.01-.01c.01.01.01.01.02.01l.02.01.04.02.08.03c.01-.01.02-.01.03-.02v-.01l-.01-.01h-.02c-.01-.01-.04-.01-.07-.02h-.03c-.02 0-.04 0-.07-.01v.01ZM119.882 2776.47l16.88-32.39c215.156-370.73 460.719-666.23 736.688-886.5 161.63-126.62 330.84-231.23 507.64-313.83 93.51-50.86 265.33-111.46 515.47-181.78 334.88-84.87 590.57-117.28 767.09-97.25 88.31 3.33 142.48 8.08 162.53 14.25 49.28 10.51 112.84 32.64 190.66 66.4 23.96 7.13 56.68 8.86 98.16 5.21 66.79 30.9 130 52.24 189.64 64.02 58.95 11.46 121.52 15.3 187.69 11.51 83.85-4.58 166.83-14.39 248.94-29.41 35.5-9.46 62.81-17.65 81.94-24.57 101.88-41.77 170.91-68.02 207.1-78.77 75.17-23.2 121.26-33.91 138.27-32.15 5.8-1.69 15.29 2.82 28.47 13.53 78.85 84.7 130.19 130.56 154.02 137.56 126.83 49.12 224.28 78.27 292.34 87.44 47.43 7.2 119.73 3.65 216.89-10.64 89.2-21.99 174.23-49.19 255.11-81.6l51.97-9.77c-34.1-.82-54.16-.16-60.19 2-75.19 24.29-161.74 46.23-259.65 65.81-112.67 10.22-185.89 10.83-219.65 1.82-87.38-17.9-174.99-45.45-262.82-82.65-20.52-2.31-71.73-48.21-153.65-137.71-14.57-11.88-26.4-17.59-35.47-17.1-23.01-2.39-69.97 7.87-140.88 30.8-44.41 13.07-115.43 39.93-213.04 80.55-35.91 11.82-65.93 20.69-90.05 26.61-79.37 13.84-157.43 23.1-234.17 27.78-74.97 3.85-143.24-1.27-204.82-15.36-36.77-6.9-93.71-26.94-170.82-60.11-47.26.92-81.07-1.28-101.45-6.6-63.46-31.37-132.09-55.09-205.89-71.14-26.85-5.36-104.11-10.11-231.78-14.27-189.75-7.18-451.42 34.1-785.01 123.87-377.35 112.01-707.78 285.37-991.314 520.08-322.095 287.23-551.043 588.68-686.844 904.36Z"
        fill="currentColor" />
    <path
        d="m2946.19 1311-.01-.74c.67-14.3 10.82-20.97 30.45-19.99 15.84.84 79.33 13.25 190.47 37.26 22.62 6.22 100.45 42.35 233.5 108.39 11.59 4.78 25.82 8.81 42.7 12.09 70.83 14.44 183.67 19.01 338.49 13.7 46.94 5.07 78.2 10.53 93.8 16.36 29.69 8.34 67.65 29.13 113.87 62.36 52.36 38.22 104.32 82.96 155.88 134.21 23.22 18.52 40.3 30.73 51.25 36.61 29.01 18.16 108.18 42.72 237.52 73.69 14.32 6.22 26.12 12.67 35.4 19.35-19.96-16.42-31.91-25.23-35.86-26.43-123.3-42.17-202.76-74.76-238.37-97.79-12.5-7-26.26-16.56-41.3-28.69-47.34-49.63-92.89-90.18-136.65-121.65-52.4-38.32-96.48-63.03-132.23-74.1-21.26-7.45-53.97-13.02-98.14-16.72-161.62 5.8-273.58 2.89-335.87-8.74-20.1-3.33-37.07-7.77-50.9-13.31-148.75-63.79-225.48-95.03-230.2-93.74l-191.51-34.65c-21.85.01-32.61 7.52-32.29 22.53Z"
        fill="currentColor" />
    <path
        d="m145.117 2795.89 2.647-10.62.063-.33c.004 0 .007 0 .01-.01l-2.72 10.96Zm8.733-69.87.969-2.61.03-.13h.01c-.337.92-.673 1.83-1.009 2.74Zm3589.8-1295.59 6.67-.73 18.67-5.27-25.34 6Zm25.34-6 9.15-2.16 15.27-6.8 15.96-5.51 14.33-4.29 11.13-3.11 8.95-2.44c4.72-1.22 7.54-1.96 8.47-2.2v-.04l-3.91.94-13.13 3.44-12.56 3.43-12.79 3.79-12.16 4.04-11.1 4.23-8.8 4.2-8.81 2.48Zm506.29-84.99 7.14 7.22 3.63 1.18-10.77-8.4Zm81.34 3.68.83.17c33.38 7.1 59.54 13.68 78.49 19.74l25.73 8.53c3.38.81 17.87 7.15 43.49 19 10.54 5.11 21.77 11.14 33.68 18.1l18.01 11.8c12.45 9.05 24.76 19.15 36.92 30.33l2.18 4.58c-5.82-5.78-14.08-12.97-24.75-21.57l-13.53-10.32c-14.98-11-33.69-21.87-56.15-32.6-16.47-7.93-31.89-14.57-46.26-19.92l-34.11-11.24c-37.16-10.03-58.66-15.56-64.53-16.6Zm447.39 107.45 6.19-.18-5.71.14-.48.04Zm199.89-39 12.05-2.09-7.15.53-4.9 1.56Zm-1.16 3.17 5.55-.93.3-.09.51-.04 13.12-2.21-2.73.26-13.47 1.54c-1.09.49-2.19.98-3.28 1.47Zm19.47-3.27 15.39-1.45 14.27-1.43-27.52 2.52-2.14.36ZM128.746 2874.81l4.847-17.13c70.805-243.12 270.746-549.06 599.825-917.81l130.704-98.08-130.004 101.46-20.704 22.63 20.114-21.2 219.333-168.7 110.259-80.71-2.47 1.97 84.02-58.17 57.49-37.5c42.14-27.67 85.04-53.03 128.7-76.07l112.51-42.26c-77.29 20.4-152.37 55.19-225.25 104.37l100.61-59.09 156.82-60.3c98.45-28.94 230.25-69.69 395.41-122.27 78.93-18.7 146.89-27.14 203.88-25.32 45.87-9.44 119.47-22.36 220.79-38.77l261.3 24.99c87.24-12.94 146.9-17.46 178.96-13.56l234.89 33.93c112.38 55.96 197.98 87.73 256.82 95.32l30.98 4.15c-25.18-1.96-67.76-12.24-127.72-30.83l113.34 26.1 316.5 26.55 73.36-1.42 109.59-16.66c-54.73 11.62-116.72 17.31-185.96 17.06L3286.92 1421l272.73 23.18 75.47-1.18c56.04-8.99 96.87-14.52 122.5-16.58 36.78-15.57 75.87-27.6 117.27-36.1-55.58 10.75-94.7 21.92-117.38 33.49-22.02 1.79-45.89 4.68-71.62 8.67 69-12.16 88.22-16.02 57.68-11.57-37.52 4.39-72.8 9.75-105.84 16.08l-22.05.25c12.66.28 57-6.12 133-19.2-40.55 3.46-77.7 8.09-111.45 13.9l-87.24.54-260.36-26.81 270.49 25.45 20.79-.25c-15.87.91-54.96-2.89-117.27-11.41 74.3 6.87 129.03 7.6 164.19 2.18l123.19-21.62 54.66-21.53-36.93 24.78c50.4-22.42 103.44-38.55 159.12-48.38l54.73-22.41 42.46-19.4 136.99-77.55 14.99 7.16 94.69 93.99 3.55 2.76-49.05-49.4 64.97 61.83c11.37 2.61 22.59 5.28 33.63 7.99-28.06-7.92-28.49-8.4-1.3-1.46l48.74 13.53 89.85 32.59c49.35 21.6 92.77 48.43 130.28 80.5 14.58 5.05 122.57-5.37 323.98-31.24 29.25-9.49 57.94-21.39 86.07-35.68 13.25-3.59 33.82-6.53 61.73-8.83l33.58-10.62c-27.05 9.53-57.56 14.75-91.51 15.64-51.11 23.07-84.13 35.63-99.07 37.67 31.42-9.16 63.27-21.56 95.56-37.22-37.4 16.54-67.63 27.94-90.67 34.2l-146.16 11.71 140.84-12.8c2.83 1.84 35.21-10.26 97.15-36.28-59.43 23.54-92.43 35.01-99 34.39l-196.17 15.23 95.28-10.62-203.02 9.87-1.86-2.14c7.48 2.13 39.77 1.03 96.87-3.29-47.29 3.54-79.91 4.33-97.86 2.38-28.12-34.42-71.6-63.22-130.44-86.4-27.75-12-85.67-26.93-173.75-44.78l-99.75-107.49-43.37-10.58c-105.29 61.63-182.11 99.25-230.45 112.87-78.71 12.92-138.33 27.86-178.86 44.83l-118.8 15.18-67.25-.38c-189.9-17.26-295.67-28.24-317.32-32.95-16.09-2.32-47.63-12.3-94.62-29.94-11.63-4.54-12.59-5.06-2.89-1.54l-61.04-24.34-22.07-9.5-54.2-25.88-29.21-9.82c-124.73-20.75-205.55-31.86-242.47-33.33-63.45.1-117.52 5.05-162.21 14.86-14.12-1.7-16.4-2.72-6.84-3.06l-124.39-7.33-162.76-2.21c-135.22 29.53-206.26 46.74-213.1 51.63-46.89-3.29-112.9 5.24-198.02 25.61l-514.63 182.78c96.67-40.02 143.07-58.22 139.21-54.59l-38.35 13.03c-110.03 40.93-160.33 61.06-150.91 60.41-31.77 16.04-76.92 44.71-135.44 86.03l-454.36 328.14c-80.115 79.59-161.296 172.5-243.544 278.73l-81.481 110.6c42.712-60.73 108.233-143 196.562-246.8-123.503 150.73-220.755 283.86-291.754 399.39-77.346 134.25-118.982 215.68-124.909 244.29l-9.875 28.43c7.962-21.82 17.108-41.89 27.437-60.21.799-4.64 4.53-6.17 11.192-4.58l-45.651 126.45c10.065-42.9 31.298-94.52 63.699-154.85-37.864 69.41-65.457 150.98-82.78 244.72ZM5015.95 1409.48l.76-.05 12.37-.88c8.46-.76 17.22-1.63 26.3-2.61l12.71-1.9 13.46-4.44c11.77-3.62 18.31-5.61 19.6-5.98l-9.63 2.8-18.14 5.66-17.51 3.52-18.53 1.84-18.35 1.52-3.04.52Zm85.19-15.85 8.81-2.56 18.69-4.98c-2.01.5-4.02 1-6.04 1.5l-13.66 3.69-7.8 2.35Z"
        fill="currentColor" />
    <path
        d="m3380.46 1502.01 8.54 3.77 11.29 1.32-19.83-5.09Zm19.83 5.09 12.23 3.13 15.62-.55 8.42-.81 2.83-.37-1.5.1-14.79 1.17-22.81-2.67Zm919.46 219.35.9.51 2.15.54.6.03 5.09-.47-8.74-.61Zm8.73.61 9.55.68 20.05-2.79 14.14-1.82 9.51-1.15c4.07-.47 7.87-.87 11.39-1.21l-20.84 1.86c-14.38 1.45-25.66 2.6-33.81 3.46l-9.99.97ZM372.19 2118.57l1.299-.52c3.788-4.55 13.538-6.65 29.251-6.28l276.679-257.01c70.527-44.06 202.638-119.01 396.331-224.86l74.07-59.54-70.01 60.8-52.69 28.91 49.42-24.97 103.31-83.94 330.29-146.05c20.62-7.73 57.48-16.31 110.58-25.76-18 1.95-52.79 8.65-104.4 20.1l-76.5 32.86 85.31-36.16c36.34-9.04 67.46-15.76 93.36-20.15l396.17-56.76c31.04-7.68 61.46-14.14 91.27-19.38 59.93-6.93 115.75-8.49 167.46-4.66 57.09 3.84 119.21 13.14 186.38 27.89l52.97 1.98c72.03 1.56 142.39-1.45 211.07-9.02 21.92 8.36 63.18 15.25 123.77 20.68-11.87 3.2 26.12.58 113.97-7.88 12.01 1.58 25.86 5.5 41.54 11.76l-33.27-14.21-24.38 2.03c9.63-3.75 16.35-4.77 20.15-3.05l414.87 176.63-196.08-86.33c-4.76-2.19-5.52-2.59-2.29-1.23l-62.63-29.52-48.36-23.16c-37.68-18.56-52.3-25.98-43.89-22.25l369.9 165.49c13.18 3.04 32.92 2.39 59.23-1.93-40.68 4.45-67.18 1.35-79.49-9.3l-80.24-37.7c34.87 12.4 51.82 18.11 50.84 17.13l-94.37-41.71c35.21 13.41 65.06 25.3 89.56 35.67l-307.12-148.86 196.59 92.31-76.84-40.42 243.09 92.85c3.94 6.77-8.23 6.52-36.51-.75l38.84 14.57c-1.71 4.55 22.62 1.43 73-9.35l75.34-25.28c11.74-3.59 23.87-6.01 36.37-7.28 103.33-12.2 192.19-6.58 266.59 16.86-23.81-9.35-51.65-15.84-83.52-19.49l36.96 5.39c25.23 2.54 57.97 14.85 98.21 36.93 66.89 56.12 202.94 139.86 408.14 251.24l7.97.56-65.72-37.6 63.72 34.85c1.97 2.63 15.06 2.12 39.26-1.52-23.85 4.99-39.17 3.87-45.95-3.34l-146.44-89.24 159.84 93.34c34.99-4.76 65.72-7.77 92.18-9.01l-95.58 5.74-189.6-118.53 66.9 39.67-312.71-212.87 43.03 22.2 199.05 138.63-204.48-146.11c-29.63-18.13-60.9-31.25-93.83-39.38-66.06-11.36-118.44-16.46-157.13-15.3l-111.38 6.56c-33.5 6.31-58.98 13.11-76.44 20.4-28.38 4.66-51.33 7.16-68.86 7.51-207.33-111.36-349.95-178.07-427.87-200.11l-43.15-1.8c1.4-.18-24.72 3.04-78.35 9.66-11.18.24-21.49.03-30.92-.62-22.45-1.64-57.93-8.27-106.44-19.91-108.95 9.92-173.36 14.34-193.24 13.25l-52.58-.96-70.03-10.3-63.35-4.82c-34.6-1.07-89.3 1.86-164.08 8.8l-86.6 13.69-97.58 26.39c-17.59 1.11-50.92 8.08-100.01 20.93l-348.61 65.98c31.79-9.55 68.4-17.92 109.83-25.11l-50.57 8.57c-40.47 8.06-74.94 15.93-103.43 23.62-9.57 2.68-24.09 8.7-43.55 18.07l-216.57 104.94-99.38 42.63c-11.08 5.79-43.03 30.68-95.88 74.69-98.087 42.74-218.435 108.01-361.041 195.79a6037.47 6037.47 0 0 1 208.365-116.56L659.978 1812.6l-21.275 16.86c-119.532 113.07-189.866 185.71-211.003 217.92l39.282-35.36 9.033 4.24-72.776 76.33 93.928-91.94-96.361 105.96c-17.381 4.51-26.92 8.5-28.616 11.96Z"
        fill="currentColor" />
    <path
        d="m23.537 1618.66 5.906-10.77 21.03-14.39c5.716-3.93 22.262-16.16 49.637-36.69 1.85-1.49 3.387-2.45 4.611-2.86l-16.02 13.36c-11.179 9.03-20.86 16.65-29.046 22.88-18.29 13.83-28.235 21.05-29.835 21.67l-6.283 6.8Zm2471.483-511.7 11.9 1.29 20.54 3.5 17.65 3.92 14.91 3.91c7.64 2.09 16.95 5 27.94 8.75l4.82 3.67-14.85-5.13-15.82-4.96-14.3-4.04c-9.11-2.37-17.09-4.26-23.95-5.67l-9.44-1.92-19.4-3.32Zm970.16 253.67 1.34.14 3.22-1.12c-1.52.33-3.04.66-4.56.98Zm4.56-.98 7.12-1.52c12.52-4.55 23.89-8.64 34.09-12.28l13.68-4.76 10.76-4.2 1.45-.52-26.66 9.18-23.86 8.38-16.58 5.72Zm67.09-23.28 2.32-.8c.34-.13.69-.27 1.04-.4v-.01l-3.36 1.21Zm3.36-1.2 3.33-1.2 4.43-1.84-7.76 3.04Zm245.69-173.02 1.15-2.02.73-1.82v-.01c-.63 1.28-1.25 2.57-1.88 3.85ZM0 1661.57l9.052-16.5c-7.2 13.47-4.586 43 7.839 88.58-7.304-38.18-3.575-70.25 11.187-96.22l108.079-81.95 39.632-24.01c98.607-40.02 177.649-73.63 237.124-100.84l238.179-69.04c72.881-12.55 126.107-20.24 159.677-23.09l43.923-4.48-145.099 22.43c33.924-2.85 84.918-9.49 152.979-19.93l18.657-3.62c34.428-13.4 61.034-21.64 79.818-24.72 16.039-3.92 36.109-6.77 60.213-8.55 14.76-2.3 31.11 2.6 49.06 14.72 75.78 85.31 140.5 153.46 194.18 204.46l-131.97-142.68c116.58 126.67 186.25 191.79 209.01 195.36 25.22 13.43 80.25 24.21 165.08 32.34l175.22 11.46c20.22-.36 41.97-2.99 65.26-7.86 21.01-4.47 40.2-11.96 57.55-22.48l182.21-184.02c66.6-25.41 144-84.9 232.19-178.47 82.01-51.35 142.57-85.42 181.69-102.2 15.63-3.24 40.17-4.38 73.63-3.41-19.64-2.84-43.95-2.47-72.93 1.1 59.14-11.9 123.32-5.83 192.54 18.19l-6.3-1.76 123.71 86.31c72.87 47.38 115.25 73.67 127.15 78.84-14.55-7.29-56.27-33.63-125.15-79.02-78.19-54.35-117.36-83.07-117.51-86.16 153.21 105.66 240.61 162.91 262.22 171.77l-124.5-83.52c36.52 19.05 52.15 26.74 46.9 23.06l-87.28-58.66 85.87 53.16-166.49-120.91-13.59-10.24 2.43.6c-42.17-15.22-76.58-24.29-103.24-27.19 32.15 2.98 67.54 11.37 106.18 25.16l73.69 54.69-46.31-36.48-20.87-17.13c-2.01-1.66-2.19-1.98-.54-.95 86.99 54.65 162.48 98.01 226.47 130.09.45 2.68-1.68 4.46-6.39 5.35l-28.72-8.03c-2.64-.83-3.44-.7-2.4.4l168.11 77.39c110.7 48.22 208.72 79.39 294.05 93.53-25.1-4.27-55.74-11.55-91.9-21.84 25.09 7.62 59.95 14.86 104.57 21.7 42.23-7.62 83.56-8.08 124.01-1.36l86.15-11.71 98.92-42.63c82.96-36.39 151.12-95.64 204.49-177.76l5.07-10.38c-15.4 27.23-27.51 44.81-36.33 52.75-14.79 15.96-32.53 32.49-53.22 49.59-9.99 8.35-12.93 10.61-8.84 6.8l50.6-46.93 27.22-32.73c-69.92 74.51-126.21 118.73-168.86 132.65 21.43-5.38 65.24-37.5 131.41-96.37 19.74-17.42 36.78-39.45 51.12-66.07-20.08 37.96-55.54 74.01-106.37 108.14-22.08 21.88-59.79 43.18-113.12 63.88l-5.05 1.99 65.93-33.74c-30.06 13.89-82.81 34.22-158.24 61l-78.45 5.75c3.96-1.36-5.74-3.19-29.09-5.5l-38.9-1.04c-17.55 1.04-33.79 2.76-48.73 5.16 15.8-3.25 31.65-5.45 47.57-6.6 30.33-1.31 56.4.74 78.2 6.12l65.55-6.68-65.6 2.78c-34.94-5.24-56.15-7.48-63.64-6.71l-29.64 1.15c-27.12 3.13-35 4.53-23.64 4.19-74.07-13.29-111.9-21.82-113.49-25.61-140.72-39.66-321.7-143.27-542.94-310.83-71.12-23.84-145.22-30.846-222.32-21.02-31.33-2.18-116.65 42.27-255.96 133.34-65.24 72.8-110.68 117.39-136.32 133.79l-16.35 10.22c-6.6 2.99-8.21 2.81-4.84-.53l-34.54 15.17-41.46 23.19-53.28 61.79-110.73 137.57c8.77-8.76 10.31-10.03 4.62-3.82-10.9 9.46-22.58 15.5-35.04 18.12l-37.81 7.08-182.15 1.59c-50.14-.2-96.52-7.5-139.16-21.92-5.41 1.47-30.72-19.85-75.93-63.98l-24.12-25.35 81.18 72.46-237.93-238.19c-21.35-15.88-49.92-22.58-85.7-20.12-57.354 7.47-85.897 11.76-85.625 12.85-26.519 6.25-48.552 12.24-66.1 17.97l7.743 2.25c7.906-5.8-69.944 1.57-233.551 22.12 2.162-1.51-28.504 6-91.998 22.55l-144.364 39.95-20.398 7.53-38.71 17.37 61.506-23.64 172.615-44.64c-60.386 20.85-118.451 38.17-174.194 51.98-44.965 17.73-129.175 54.81-252.628 111.23l-27.064 16.46-97.567 86.25 43.773-27.16 10.063 6.73-65.637 54.51C5.388 1636.25-.03 1650.34 0 1661.57Zm3787.76-503.26 2.5-5.13 4.52-12.63-7.02 17.76Z"
        fill="currentColor" />
    <path
        d="m2656.72 1270.68 16.02 1.88-9.6-2.26-6.42.38Zm16.02 1.88 4.9 1.16 6.09 1.17.28-.1-9.27-1.99-2-.24ZM330.588 2715.11l3.384 7.48c3.64 7.91 2.692 5.65-2.842-6.79l.941-38.21 31.035-137.07 92.482-320.46 4.699-93.31 93.94-135.25 38.241-39.62c-20.736 18.8-45.765 52.28-75.087 100.43l45.275-60.84 58.083-68.06 102.583-114.55 55.1-73.18c39.074-39.98 79.242-73.93 120.503-101.88-61.892 41.01-104.508 74.8-127.847 101.37 28.099-30.98 73.482-68.76 136.15-113.33l143.432-152.26 12.32-.9c7.42 11.54 41.85 27.79 103.29 48.76 14.86 4.91 35.91 2.87 63.17-6.11 4.05.97 20.02-6.3 47.93-21.81l122.3-75.45c39.4-30.67 68.76-61.12 88.08-91.35l-5.07 9.26c24.39-18.8 62.12-29.7 113.18-32.68l54.85-2.92c1.61 4.68 17.63 9.79 48.06 15.32 95.6 19.96 169.29 33.09 221.09 39.39 9.06 1.14 8.87.74-.57-1.18l-72.04-12.37 17.36.8 363.15 38.85 65.89 3.7 35.89-5.48c-21.26 3.88-42.44 5.37-63.57 4.48l-316.63-40.53-2.27-.58 59.62 5.73 29.22 1.97 33.43 5.36c10.74-.45 24.7.13 41.87 1.76l152.15 21.03c19.51 1.84 45.44.07 77.8-5.34-24.15 5.16-69.69 2.44-136.61-8.17l45.58-2.53-88.88-10.88 86.02 5.66c4.8-3.41-92.84-18.89-292.93-46.43 60.61 5.59 122.48 13.31 185.62 23.15l-73.57-16.18c43.16 2.32 112.59 3.4 208.28 3.23 5.99.54 13.12-.28 21.39-2.44 5.68 9.17-5.85 16.04-34.61 20.63-3.7 1.15.46 1.46 12.47.92 135.64-31.77 228.94-45.37 279.91-40.83 36.37-14.4 70.66-22.65 102.89-24.74 1.21-3.49-14.45-1.7-47 5.38l11.69-3.01c18.4-4.58 32.91-6.17 43.53-4.75 27.28 4.1 65.2 20.96 113.75 50.57l289.32 210.5 69.99 22.6-70-28.56-41.5-33.42c25.56 24.44 53.43 40.06 83.61 46.85l-44.65-19.56-107.7-91.3 114.92 91.03 76.81 30.45-82.9-38.07c-51.18-46.23-95.51-83.1-132.97-110.61 77.25 57.05 66.05 44.1-33.6-38.86-77.89-63.82-138.46-104.46-181.7-121.94 46.61 15.07 117.64 63.51 213.1 145.31-4.77-6.53-48.53-42.01-131.3-106.44-53.05-34.69-93.08-53.75-120.11-57.19-17.16-9.19-63.15-2.47-137.99 20.16-52.16-1.95-86.57-2.45-103.24-1.5-123.24 6.88-173.76 10.3-151.58 10.25l-521.69-78.67-94.93-22-25.97-1.24-28.73 4.13c-58.77 17.49-94.02 27.01-105.75 28.56-20.42 4.4-44.66 13.57-72.74 27.51-4.37 2.19-5.01 1.26-1.92-2.78-13.02 6.87-26.86 15.6-41.52 26.19-40.4 56.39-73.35 95.86-98.85 118.41-63.6 39.93-92.91 61.31-87.91 64.15l-30.55 12.52c-30.11-10.65-50.72-16.12-61.82-16.42l-33.7-16.69-25.56-.34c-36.54 7.09-60.555 18.88-72.04 35.36-27.347 37.74-66.745 87.06-118.195 147.98l-46.717 33.86c39.253-31.88 59.367-51.02 60.341-57.44l-124.825 107.7c-8.817 8.07-25.023 27.08-48.619 57.05-1.291 9.1-26.068 45.23-74.332 108.4L494.38 1959.7l-88.989 124.64-12.813 43.95 8.134 72.41-26.463 112.57 28.1-107.39-6.012-79.92 10.661 81.31-72.73 309.92-11.483 104.4.871 2.97c1.783-14.29 4.406-28.82 7.869-43.59.023-3.78 2.727-5.24 8.112-4.38l-13.376 93.43 20.648-114.2c-17.364 75.49-22.805 128.59-16.321 159.29ZM3149.49 1547.46l13.91 6.97-12.76-6.48-1.15-.49Z"
        fill="currentColor" />
    <path
        d="m199.162 1198.47 9.237 23.08 15.461-12.72-24.698-10.36Zm66.194 135.71 1.187-2.99h.005l-.258.39-.934 2.6Zm329.542-848.59 7.398-5.984 2.565-.304-1.533-.53.545-.441c-.97.293-1.615.279-1.935-.042l12.679-13.899c3.768-4.436 13.905-17.754 30.412-39.954l14.994-15.171c2.708-1.835 4.554-3.019 5.537-3.553.987-.535 1.623-.78 1.908-.735l-24.561 25.296-11.422 16.528-10.282 14.348-9.013 11.534-7.705 8.436-1.064 2.884c-3.238.476-6.079 1.005-8.523 1.587Zm347.54 880.76.512-.25.516-.24c.432.16.865.33 1.297.5-.775-.01-1.55-.01-2.325-.01Zm-3.555-4.37 5.126 2.3 3.768-.35 8.418-.21-7.421-.56-9.69-1.23-.201.05ZM852.882 145.604l9.721-12.649c11.44-14.658 36.016-43.407 73.728-86.245 6.648-6.995 13.34-13.265 20.075-18.809l8.366-6.876 3.869-2.103-6.219-1.396-17.825 15.616-14.101 14.537-50.104 60.738c-15.495 19.898-24.665 32.294-27.51 37.187ZM968.641 18.922l12.208 2.743 11.984-7.722 74.907 21.528-19.14-31.259L1026.58 0l-31.209 4.39-26.73 14.532ZM1090.51 219.47l.55-5.231 2.91-23.016 1.13-37.533c.27-6.615 1.14-20.844 2.59-42.687l1.28-11.86-5.25-21.208 12.93 21.128c-.91 7.298-3.04 25.605-6.39 54.92l-2.65 30.323c-1.33 9.079-2.69 16.663-4.06 22.753l-3.04 12.411ZM223.86 1208.83l31.087 13.04 27.617 68.92-16.021 40.4c11.379-16.94 27.49-34.27 48.332-52.01 71.531-64.47 131.221-114.27 179.07-149.39l128.399-123.16-43.993 49.17-46.703 48.28 5.929-5.46c69.593-66.11 110.019-105.464 121.278-118.074l33.708-42.83c18.659-25.575 51.326-84.175 98.001-175.8 33.412-78.187 61.975-149.003 85.691-212.447 5.964-16.476 22.356-48.933 49.175-97.369l21.028-34.996 1.654 3.333 19.966-17.715c29.887-28.625 48.032-47.399 54.422-56.324 21.53-25.664 42.78-55.043 63.73-88.136 8.52-25.042 13.88-45.352 16.08-60.931l7.97-87.765-6.2-60.218-18.47-4.15-1.23-4.94-16.65-4.786 4.05 6.62-90.931-20.427-16.744 10.789c-11.636 7.387-41.243 40.868-88.822 100.442l-88.567 124.208c6.299.485-39.857 39.275-138.468 116.373l-33.239 37.04c-19.05 34.938-30.062 52.485-33.036 52.64l34.228-34.413 2.847-.641 12.12 6.098c-9.06 15.446-19.894 30.456-32.502 45.03l-26.9 3.507 26.205-2.619-4.521 5.775-96.75 17.131c-7.261 2.219-13.136 7.207-17.624 14.964l-2.28 3.748 32.769-21.011c48.717 4.26 77.455 5.564 86.214 3.911l-10.151 27.426 12.675-27.613 15.767-1.782 63.781-72.855c74.971-45.113 131.85-87.411 170.639-126.893l104.774-142.14c27.213-33.068 47.416-54.397 60.616-63.985-6.36 36.633-14.101 73.826-23.232 111.579l21.372-7.83-28.463 17.479c-58.344 84.398-98.555 134.936-120.632 151.615-14.322 27.088-28.85 58.302-43.585 93.642 13.799-38.676 27.119-72.014 39.959-100.014 37.707-40.922 55.274-60.989 52.7-60.201-24.245 25.858-39.411 40.692-45.499 44.501l-15.406 22.468c-19.573 41.106-48.761 122.919-87.564 245.441-11.203 25.736-20.011 44.858-26.423 57.365-1.669 3.291-1.503 2.65.496-1.923l-37.379 69.437C631.59 856.158 564.031 938.452 497.547 987.236c81.517-66.483 134.234-120.132 158.151-160.946l-25.107 34.316c-13.582 17.899-29.857 37.085-48.827 57.559L438.192 1053.31c-89.464 60.22-160.908 112.06-214.332 155.52ZM76.232 1588.67l27.199 52.06 32.095 9.03 35.95-3.49c15.726-13.95 139.595-71.87 371.608-173.76 88.585-35.83 144.827-57.56 168.727-65.2 22.484-8.05 41.811-13.25 57.983-15.6l22.816-1.34c101.6-16.52 151.124-24.22 148.572-23.09 1.749-1.75 6.776-.47 15.082 3.85-9.561-4.28-9.578-5.86-.053-4.74l-20.172-3.28c11.89.61 5.537 2.02-19.058 4.24l21.695-5.47 12.404-1.47 149.7 69.12c36.02 10.8 65.08 17.9 87.18 21.3 33.68 6.53 67.55 9.89 101.58 10.08 29.8-.88 52.92-2.3 69.35-4.25 12.62-1.62 15.31-2.45 8.08-2.5 16.89-.56 30.82-2.6 41.78-6.12 34.89-10.87 84.31-32.73 148.24-65.58-55.74 27.65-101.61 47.86-137.6 60.62-34 10.29-79.13 15.36-135.42 15.19-15.59.57-40.73-1.87-75.43-7.33 8.08 1.32.13-.3-23.84-4.87l-26.64-6.07-47.21-13.96c-3.5 3.04-45.23-17.72-125.2-62.29 4.09.85 35.05 16.43 92.88 46.72l68.83 23.69 23.56 5.27c67.93 7.82 106.9 11.19 116.91 10.14 46.51.72 88.89-3.55 127.13-12.82 52-18.06 104.71-40.86 158.14-68.41l-135.27 53.35-39.17 12.46-19.22 3.21c42.13-12.57 69.5-24.51 82.12-35.82-20.78 9.42-43.09 17.37-66.94 23.85-34.9 5.6-63.35 8.33-85.33 8.21 52.97-1.58 101.28-13.44 144.93-35.6-48.53 16.19-76.04 22.95-82.53 20.3-67.42 3.64-116.21 2.38-146.38-3.79-73.18-8.34-147.15-37.05-221.9-86.12l115.56 55.54c54.03 17 106.55 27.41 157.55 31.23-35.7-4.15-73.88-13.01-114.54-26.56 73.28 11.65 136.51 11.67 189.69.05 33.17-6.49 51.18-11.48 54.04-14.96 5.86-1.76 33.51-16.41 82.94-43.96 2.57 6.04 2.62 10.51.16 13.42l-27.94 28.13 303.2-188.51c86.6-24.34 165.58-31.54 236.96-21.58-34.78-9.76-72.67-11.14-113.68-4.13 40.31-4.35 63.64-6.12 69.99-5.3 81.82 9.26 148.04 28.42 198.66 57.48l432.57 400.68-132-139.36 109.75 103.33-187.69-198.74 227.25 221.41-39.97-47.42-217.94-219.65c92.27 85.38 94.74 82.33 7.41-9.17l-141.87-141.14c-48.27-37.17-106.69-62.23-175.24-75.2 72.06 13.17 126.59 33.34 163.6 60.52l149.48 145.63-108.29-110.36-11.73-12.62c4.36 4.45 4.37 4.1.02-1.03l-23-22.23c-46.81-39.2-133.91-66.73-261.32-82.6-112.86 7.46-179 16.02-198.42 25.7l-30.4 12.76c-142.51 77.66-219.72 118.3-231.63 121.94-35.67 19.18-74.97 34.39-117.91 45.64-36.81 4.2-99.9-4.58-189.26-26.37l-31.09-9.49-143.66-64.46-54.838-9.63-42.738 5.1c-33.782 6.13-51.625 9.12-53.529 8.97l-156.665 36.49c-29.243 8.18-66.6 20.58-112.072 37.18-16.515 5.77-46.664 18.86-90.449 39.27-27.496 14.28-73.587 36.22-138.273 65.83-23.016 10-30.651 11.21-22.905 3.62-34.553 16.37-73.819 36.93-117.798 61.68 7.909-28.46 22.908-56.47 44.997-84.04l-51.991-129.93-37.526 35.81 16.508 63.45-22.588-47.96c-22.452 21.96-44.182 58.34-65.19 109.12-23.749 67.15-31.54 136.05-23.371 206.7Zm2529.648 7.89 8.33 11.41 1.08 1.21-7.26-10.35-2.15-2.27Zm9.4 12.62 1.09 1.54 9.51 10.41c-3.53-3.98-7.06-7.97-10.6-11.95Z"
        fill="currentColor" />
</svg>