<svg xmlns="http://www.w3.org/2000/svg" viewBox="0 0 512 512">
    <path
        d="M152 304c0 57.438 46.562 104 104 104s104-46.562 104-104-46.562-104-104-104-104 46.562-104 104zm328-176H368c-8-32-16-64-48-64H192c-32 0-40 32-48 64H32c-17.6 0-32 14.4-32 32v288c0 17.6 14.4 32 32 32h448c17.6 0 32-14.4 32-32V160c0-17.6-14.4-32-32-32zM256 446c-78.425 0-142-63.574-142-142s63.575-142 142-142c78.426 0 142 63.575 142 142s-63.573 142-142 142zm224-222h-64v-32h64v32z"
        fill='currentColor' />
</svg>