<svg viewBox="0 0 839 673" fill="none" xmlns="http://www.w3.org/2000/svg">
    <path
        d="M.042 314.336 0 313.92l.402-.506.397-.498c-.962 2.899 3.063 2.19 12.078-2.129-8.596 4.776-12.874 5.959-12.835 3.549Z"
        fill="currentColor" />
    <path d="M.8 312.916c3.776-4.714 8.114-9.706 13.016-14.975-7.868 7.544-12.207 12.536-13.017 14.975Z"
        fill="currentColor" />
    <path fill-rule="evenodd" clip-rule="evenodd"
        d="M13.816 297.941c16.028-15.371 46.703-41.338 92.024-77.902 64.921-49.066 119.258-87.084 163.01-114.054C366.629 48.159 443.192 14.731 498.539 5.701c-.974 4.178-7.516 12.1-19.627 23.766-110.651 98.062-185.327 166.918-224.027 206.569-16.754 17.29-31.029 32.698-42.824 46.225a3274.7 3274.7 0 0 0-3.754-27.582l-9.128-62.667c-1.44-11.585-2.441-18.697-3.002-21.336l-.706-6.245.302 3.749c1.362 17.33 2.656 32.654 3.883 45.972l6.993 67.739c.207 2.009.407 3.991.599 5.947-20.12 23.563-32.091 40.945-35.914 52.144-1.624 9.006 2.37 12.874 11.981 11.604a2621.23 2621.23 0 0 1 27.911-14.94l5.843 74.946c1.121 14.11 2.001 24.586 2.638 31.43 2.529 26.848 5.489 52.445 8.878 76.792-.002 1.497-.21 2.032-.624 1.604-1.207-.875-2.532-2.373-3.976-4.493-2.837-4.461-5.342-9.372-7.513-14.733 7.014 17.775 11.471 23.646 13.371 17.611.005-1.156-.069-2.617-.222-4.381-1.056-11.101-2.17-24.161-3.341-39.181-.531-6.753-1.357-18.452-2.479-35.096-.283-4.016-1.082-18.316-2.397-42.902l-2.789-53.926c-.333-3.799-.663-7.477-.99-11.033 82.942-43.415 148.484-71.362 196.628-83.839l3.039-.632c-12.965 25.188-18.521 37.825-16.665 37.912-.073 7.773 3.113 12.574 9.558 14.402 2.313.211 4.632-.279 6.956-1.47 18.218-11.859 30.265-18.828 36.139-20.907 27.376-11.554 46.79-18.896 58.239-22.026-1.412 5.903-11.781 22.962-31.105 51.176-2.534 3.429-3.859 9.746-3.974 18.952.041 2.735.737 3.981 2.088 3.737l19.845-5.89c3.607-.732 7.598-.584 11.973.443-59.453 58.466-116.252 119.048-170.398 181.746-34.673 41.046-60.121 76.869-76.346 107.471-12.81 23.579-16.521 39.082-11.134 46.509 7.967 11.748 22.116 14.964 42.446 9.647 37.908-18.973 79.568-61.425 124.979-127.356 25.589-35.827 59.846-93.275 102.771-172.344 10.398-19.253 14.126-34.061 11.184-44.424 55.582-56.366 157.296-155.106 305.139-296.22-136.164 113.966-241.572 208.212-316.223 282.736-8.043-3.947-16.077-5.44-24.102-4.479 26.476-35.64 35.227-57.035 26.255-64.182-5.525-4.849-15.812-4.404-30.86 1.334-40.973 14.256-65.884 25.42-74.731 33.49 18.362-28.745 18.088-43.774-.821-45.087-48.574 9.839-115.998 38.072-202.273 84.702a1384.617 1384.617 0 0 0-1.831-17.395c16.935-20.916 38.851-45.146 65.747-72.692C315.1 193.056 386.47 125.981 494.257 27.374 511.319 9.177 510.616.053 492.147 0c-45.168 3.716-118.589 35.607-220.264 95.672C142.75 184.381 56.727 251.804 13.816 297.941Zm251.513 353.973-.019.544c.404 3.592 5.373 5.087 14.908 4.484 7.563-1.035 16.044-4.513 25.444-10.432 16.412-10.889 36.24-30.266 59.484-58.132 20.326-23.938 46.466-61.563 78.421-112.877 35.608-58.268 59.954-102.178 73.037-131.73-94.336 95.818-155.623 161.619-183.859 197.403-36.356 44.612-58.828 81.525-67.416 110.74Zm-56.331-343.847c-6.857 8.738-12.781 16.856-17.771 24.353a2200.692 2200.692 0 0 1 18.859-10.4l-1.088-13.953Z"
        fill="currentColor" />
    <path d="m215.549 499.792.063.171c.233.627.497 1.313.792 2.055a186.36 186.36 0 0 1-.855-2.23v.004Z"
        fill="currentColor" />
</svg>